<svg width="187" height="187" viewBox="0 0 187 187" fill="none" xmlns="http://www.w3.org/2000/svg">
  <path d="M143.127 75.6906C142.696 78.6641 140.735 82.7036 138.486 86.2158C135.648 90.6473 131.144 93.7512 125.99 94.829L103.285 99.5768C99.6358 100.34 96.3268 102.25 93.8423 105.027L78.9551 121.668C76.1572 124.795 74.2017 124.049 74.2017 119.855C74.1678 120.01 66.8131 138.977 86.304 150.219C93.7929 154.539 104.573 152.987 112.062 148.667L151.742 125.78C166.582 117.22 177.06 102.74 180.542 85.9779C180.68 85.3148 180.787 84.6493 180.901 83.9844L143.127 75.6906Z" fill="url(#paint0_linear_3769_37612)"/>
  <path d="M132.837 52.8281C140.326 57.1477 143.385 63.5788 143.385 72.218C143.385 73.3908 143.293 74.5496 143.127 75.6906L159.116 82.5586L180.901 83.9844C183.691 67.8398 178.224 51.222 168.424 38.013C161.048 28.0726 151.558 19.4463 140.149 12.8652C130.881 7.51933 121.249 3.99712 111.573 2.06442L100.7 16.1439L97.2661 32.3109L132.837 52.8281Z" fill="url(#paint1_linear_3769_37612)"/>
  <path d="M4.86159 64.6758C4.85752 64.6886 4.86879 64.6923 4.87302 64.6796C5.71199 62.1632 6.76399 59.3559 8.07733 56.3568C14.9377 40.6906 28.158 30.2421 44.4223 24.9147C60.6865 19.5874 78.4448 21.4548 93.2678 30.0047L97.2661 32.3109L111.573 2.06444C66.0689 -7.02387 19.5625 19.7096 4.91944 64.5005C4.91245 64.5219 4.88699 64.5967 4.86159 64.6758Z" fill="url(#paint2_linear_3769_37612)"/>
  <path d="M110.509 148.667C103.02 152.987 93.7929 152.987 86.3039 148.667C85.2874 148.081 84.329 147.422 83.4227 146.708L70.2518 155.763L58.8998 174.107C71.4999 184.593 87.8617 187.964 104.212 186.089C116.516 184.678 128.739 180.78 140.149 174.199C149.417 168.853 157.286 162.281 163.799 154.875L157.031 138.429L146.079 128.15L110.509 148.667Z" fill="url(#paint3_linear_3769_37612)"/>
  <path d="M83.4227 146.708C77.6528 142.163 74.2017 135.192 74.2017 127.725V126.981V64.7957C74.2017 61.279 75.2378 60.6813 78.2863 62.4397C73.5911 59.7315 62.7443 50.4343 49.3516 58.1592C41.8627 62.4789 35.6958 72.014 35.6958 80.6532V126.429C35.6958 143.548 44.5626 161.406 57.3513 172.8C57.8572 173.25 58.3809 173.675 58.8998 174.107L83.4227 146.708Z" fill="url(#paint4_linear_3769_37612)"/>
  <path d="M162.88 31.2426C162.872 31.2327 162.863 31.2407 162.872 31.2507C164.633 33.2347 166.541 35.5486 168.484 38.1844C178.634 51.9532 182.426 69.3918 178.912 86.1274C175.398 102.863 164.9 117.294 150.077 125.844L146.079 128.15L163.799 154.875C194.429 120.049 194.509 66.445 163.004 31.3804C162.988 31.3636 162.936 31.3042 162.88 31.2426Z" fill="url(#paint5_linear_3769_37612)"/>
  <path d="M37.2493 80.6534C37.2493 72.0141 41.8627 64.0311 49.3516 59.7114C50.3682 59.125 51.4189 58.6255 52.4908 58.1982L51.2268 42.2752L42.3468 24.0574C26.9572 29.7162 14.5087 41.4109 7.95874 56.4948C3.02957 67.8461 0.297054 80.3704 0.296997 93.5323C0.296997 104.224 2.0594 114.318 5.22238 123.657L22.8633 126.024L37.2493 121.688V80.6534V80.6534Z" fill="url(#paint6_linear_3769_37612)"/>
  <path d="M52.4908 58.1982C59.3155 55.4786 67.0839 55.9782 73.5561 59.7114L74.2017 60.0837L126.019 89.9721C129.654 92.0688 129.324 94.1319 125.215 94.9909L128.204 94.3659C132.138 93.5435 135.731 91.5334 138.479 88.6041C143.204 83.5677 144.939 77.4913 144.939 72.218C144.939 63.5787 140.326 55.5957 132.837 51.2761L93.1562 28.3883C78.3165 19.8287 60.5256 18.0035 44.2543 23.3713C43.6107 23.5836 42.9806 23.8243 42.3468 24.0574L52.4908 58.1982Z" fill="url(#paint7_linear_3769_37612)"/>
  <path d="M112.852 184.678C112.865 184.675 112.863 184.664 112.85 184.666C110.249 185.199 107.29 185.692 104.033 186.055C87.0228 187.953 70.01 182.515 57.2598 171.107C44.5098 159.698 37.2494 143.4 37.2494 126.3L37.2493 121.688L5.22241 123.657C20.0961 167.571 66.5232 194.442 112.671 184.716C112.694 184.711 112.771 184.696 112.852 184.678Z" fill="url(#paint8_linear_3769_37612)"/>
  <defs>
    <linearGradient id="paint0_linear_3769_37612" x1="117.15" y1="138.761" x2="135.485" y2="74.8991" gradientUnits="userSpaceOnUse">
      <stop stop-color="#1724C9"/>
      <stop offset="1" stop-color="#1C64F2"/>
    </linearGradient>
    <linearGradient id="paint1_linear_3769_37612" x1="159.379" y1="60.8808" x2="111.148" y2="12.82" gradientUnits="userSpaceOnUse">
      <stop stop-color="#1C64F2"/>
      <stop offset="1" stop-color="#0092FF"/>
    </linearGradient>
    <linearGradient id="paint2_linear_3769_37612" x1="94.458" y1="29.5461" x2="21.7006" y2="34.1437" gradientUnits="userSpaceOnUse">
      <stop stop-color="#0092FF"/>
      <stop offset="1" stop-color="#45B2FF"/>
    </linearGradient>
    <linearGradient id="paint3_linear_3769_37612" x1="89.5374" y1="167.262" x2="154.878" y2="149.631" gradientUnits="userSpaceOnUse">
      <stop stop-color="#1C64F2"/>
      <stop offset="1" stop-color="#0092FF"/>
    </linearGradient>
    <linearGradient id="paint4_linear_3769_37612" x1="42.6389" y1="91.6516" x2="89.0286" y2="139.721" gradientUnits="userSpaceOnUse">
      <stop stop-color="#1724C9"/>
      <stop offset="1" stop-color="#1C64F2"/>
    </linearGradient>
    <linearGradient id="paint5_linear_3769_37612" x1="148.55" y1="126.329" x2="180.918" y2="61.0801" gradientUnits="userSpaceOnUse">
      <stop stop-color="#0092FF"/>
      <stop offset="1" stop-color="#45B2FF"/>
    </linearGradient>
    <linearGradient id="paint6_linear_3769_37612" x1="31.5425" y1="53.4866" x2="14.2223" y2="118.586" gradientUnits="userSpaceOnUse">
      <stop stop-color="#1C64F2"/>
      <stop offset="1" stop-color="#0092FF"/>
    </linearGradient>
    <linearGradient id="paint7_linear_3769_37612" x1="119.964" y1="50.3902" x2="56.6712" y2="66.1489" gradientUnits="userSpaceOnUse">
      <stop stop-color="#1724C9"/>
      <stop offset="1" stop-color="#1C64F2"/>
    </linearGradient>
    <linearGradient id="paint8_linear_3769_37612" x1="37.6175" y1="124.704" x2="77.9614" y2="185.39" gradientUnits="userSpaceOnUse">
      <stop stop-color="#0092FF"/>
      <stop offset="1" stop-color="#45B2FF"/>
    </linearGradient>
  </defs>
</svg>
